#!OML:ASF F:\VICON\USERDATA\Patient Classification 1\PLAYGROUND\JustinFriday\JustinFriday.ASF
:FULLY-SPECIFIED
:DEGREES
3369
root 21.0402 18.2065 27.2394 350.792 -112.712 8.31334
lowerback 11.5856 4.34452 2.22163
upperback 2.01391 6.02879 2.32572
thorax -4.38351 2.90618 0.274086
lowerneck -6.36165 5.58865 1.14502
upperneck 5.43066 7.46579 -1.466
head 2.95046 3.67914 -0.328658
rclavicle -1.62506e-014 -3.97569e-016
rhumerus -26.6534 -13.2387 -70.5019
rradius 35.4476
rwrist -7.38971
rhand -16.7346 338.936
rfingers 7.12502
rthumb 9.49145 -50.8304
lclavicle -1.62506e-014 -3.97569e-016
lhumerus -34.3368 4.94535 83.5853
lradius 36.3519
lwrist 0.0619125
lhand -7.09537 -6.5953
lfingers 7.12502
lthumb 18.7791 22.5182
rfemur -10.3237 -10.1317 18.4927
rtibia 66.55
rfoot 8.14553 -9.78535
rtoes 59.1476
lfemur -8.90361 5.57741 -23.4562
ltibia 19.116
lfoot -4.28702 -3.75873
ltoes 19.0718
3370
root 20.9511 18.214 27.1843 349.452 -111.574 9.5501
lowerback 11.6093 4.18043 2.54445
upperback 2.02738 5.85362 2.46773
thorax -4.36595 2.8142 0.268326
lowerneck -7.10069 5.73351 0.564192
upperneck 6.49447 7.68638 -0.9349
head 3.4092 3.78284 -0.00523615
rclavicle -1.14301e-014 -2.78299e-014
rhumerus -26.8239 -13.7527 -70.5158
rradius 34.8636
rwrist -6.94297
rhand -17.2637 340.754
rfingers 7.12502
rthumb 8.98092 -49.0352
lclavicle -1.14301e-014 -2.78299e-014
lhumerus -34.2049 4.824 83.6444
lradius 37.5152
lwrist -0.453217
lhand -6.7381 -7.38884
lfingers 7.12502
lthumb 19.1227 21.6911
rfemur -11.0974 -10.0831 18.9289
rtibia 67.1717
rfoot 7.33767 -9.00425
rtoes 58.6835
lfemur -8.42678 4.79031 -23.0862
ltibia 19.2392
lfoot -4.487 -4.15138
ltoes 18.6711
3371
root 20.8643 18.2128 27.1301 348.338 -110.49 10.6403
lowerback 11.5573 4.00112 2.70332
upperback 2.01881 5.63901 2.63681
thorax -4.34987 2.70605 0.391072
lowerneck -6.11326 5.50346 1.25111
upperneck 5.56245 7.36261 -1.7117
head 2.9634 3.62146 -0.435324
rclavicle -5.1684e-015 5.96354e-015
rhumerus -26.8545 -14.2263 -70.5461
rradius 34.0817
rwrist -6.50556
rhand -17.137 340.726
rfingers 7.12502
rthumb 9.10312 -49.0575
lclavicle -5.1684e-015 5.96354e-015
lhumerus -33.8969 4.71308 83.8577
lradius 38.0699
lwrist -0.0408833
lhand -7.52621 -8.21241
lfingers 7.12502
lthumb 18.3647 20.9407
rfemur -11.9065 -9.93105 19.2554
rtibia 67.5276
rfoot 6.74322 -8.28102
rtoes 58.3759
lfemur -8.11033 4.41017 -22.8222
ltibia 19.4321
lfoot -4.67818 -4.95896
ltoes 17.8202
3372
root 20.7806 18.2076 27.0725 348.23 -109.387 10.678
lowerback 11.5403 3.9298 2.44158
upperback 1.98473 5.51828 2.64342
thorax -4.40283 2.65147 0.559611
lowerneck -6.65688 5.55206 1.65916
upperneck 6.53397 7.44126 -2.25218
head 3.44876 3.63622 -0.643263
rclavicle 1.22253e-014 3.49861e-014
rhumerus -26.9209 -14.9136 -70.5875
rradius 33.3953
rwrist -6.07861
rhand -16.945 340.544
rfingers 7.12502
rthumb 9.28843 -49.2313
lclavicle 1.22253e-014 3.49861e-014
lhumerus -33.6915 4.12405 84.0075
lradius 39.116
lwrist 0.18893
lhand -7.95328 -9.25457
lfingers 7.12502
lthumb 17.9538 19.9367
rfemur -12.7188 -9.74289 19.15
rtibia 67.7175
rfoot 6.22515 -7.49964
rtoes 57.9806
lfemur -7.97336 4.37613 -22.9501
ltibia 19.8641
lfoot -5.00272 -6.04928
ltoes 17.8175
3373
root 20.6959 18.1957 27.0155 347.969 -108.392 10.8047
lowerback 11.5388 3.87833 2.19122
upperback 1.98245 5.42542 2.73505
thorax -4.43726 2.61005 0.806565
lowerneck -6.46351 5.3424 0.451179
upperneck 6.49136 7.18966 -1.15031
head 3.28638 3.52748 -0.102317
rclavicle 7.61842e-014 3.97569e-015
rhumerus -26.9941 -15.4678 -70.5297
rradius 32.6891
rwrist -5.15634
rhand -16.6891 340.601
rfingers 7.12502
rthumb 9.53535 -49.1637
lclavicle 7.61842e-014 3.97569e-015
lhumerus -33.7685 3.55509 84.3043
lradius 40.512
lwrist 0.701605
lhand -8.34327 -9.45664
lfingers 7.12502
lthumb 17.5785 19.7687
rfemur -13.4859 -9.67516 19.1374
rtibia 67.7289
rfoot 5.98545 -6.33973
rtoes 55.7489
lfemur -7.78084 4.38521 -23.0198
ltibia 20.3566
lfoot -5.46036 -7.01753
ltoes 17.839
3374
root 20.607 18.1803 26.9691 346.243 -107.282 12.6304
lowerback 11.3528 3.74854 2.57853
upperback 1.9333 5.3019 2.93543
thorax -4.36958 2.54451 0.829579
lowerneck -6.43863 5.41108 0.602035
upperneck 6.61619 7.29676 -1.50861
head 3.34882 3.56835 -0.236258
rclavicle 4.69132e-014 7.95139e-015
rhumerus -27.1841 -16.2314 -70.2686
rradius 31.9656
rwrist -4.37318
rhand -16.6092 341.026
rfingers 7.12502
rthumb 9.61239 -48.7348
lclavicle 4.69132e-014 7.95139e-015
lhumerus -33.6984 3.11278 84.6297
lradius 41.7855
lwrist 1.15834
lhand -8.69624 -9.30683
lfingers 7.12502
lthumb 17.2388 19.9485
rfemur -14.3503 -9.81485 19.5791
rtibia 67.593
rfoot 5.46691 -5.32788
rtoes 53.5914
lfemur -7.74525 3.88552 -22.6382
ltibia 20.811
lfoot -5.86917 -7.70304
ltoes 17.7387
